<svg width="18" height="18" viewBox="0 0 18 18" fill="none" xmlns="http://www.w3.org/2000/svg">
<mask id="path-1-inside-1_794_15696" fill="white">
<path d="M12.75 15.9375H5.25C2.5125 15.9375 0.9375 14.3625 0.9375 11.625V6.375C0.9375 3.6375 2.5125 2.0625 5.25 2.0625H12.75C15.4875 2.0625 17.0625 3.6375 17.0625 6.375V11.625C17.0625 14.3625 15.4875 15.9375 12.75 15.9375ZM5.25 3.1875C3.105 3.1875 2.0625 4.23 2.0625 6.375V11.625C2.0625 13.77 3.105 14.8125 5.25 14.8125H12.75C14.895 14.8125 15.9375 13.77 15.9375 11.625V6.375C15.9375 4.23 14.895 3.1875 12.75 3.1875H5.25Z"/>
</mask>
<path d="M12.75 15.9375H5.25C2.5125 15.9375 0.9375 14.3625 0.9375 11.625V6.375C0.9375 3.6375 2.5125 2.0625 5.25 2.0625H12.75C15.4875 2.0625 17.0625 3.6375 17.0625 6.375V11.625C17.0625 14.3625 15.4875 15.9375 12.75 15.9375ZM5.25 3.1875C3.105 3.1875 2.0625 4.23 2.0625 6.375V11.625C2.0625 13.77 3.105 14.8125 5.25 14.8125H12.75C14.895 14.8125 15.9375 13.77 15.9375 11.625V6.375C15.9375 4.23 14.895 3.1875 12.75 3.1875H5.25Z" fill="white"/>
<path d="M12.75 13.9375H5.25V17.9375H12.75V13.9375ZM5.25 13.9375C4.26089 13.9375 3.74763 13.6598 3.4814 13.3936C3.21518 13.1274 2.9375 12.6141 2.9375 11.625H-1.0625C-1.0625 13.3734 -0.552677 15.0164 0.652974 16.222C1.85862 17.4277 3.50161 17.9375 5.25 17.9375V13.9375ZM2.9375 11.625V6.375H-1.0625V11.625H2.9375ZM2.9375 6.375C2.9375 5.38589 3.21518 4.87263 3.4814 4.6064C3.74763 4.34018 4.26089 4.0625 5.25 4.0625V0.0625C3.50161 0.0625 1.85862 0.572323 0.652974 1.77797C-0.552677 2.98362 -1.0625 4.62661 -1.0625 6.375H2.9375ZM5.25 4.0625H12.75V0.0625H5.25V4.0625ZM12.75 4.0625C13.7391 4.0625 14.2524 4.34018 14.5186 4.6064C14.7848 4.87263 15.0625 5.38589 15.0625 6.375H19.0625C19.0625 4.62661 18.5527 2.98362 17.347 1.77797C16.1414 0.572323 14.4984 0.0625 12.75 0.0625V4.0625ZM15.0625 6.375V11.625H19.0625V6.375H15.0625ZM15.0625 11.625C15.0625 12.6141 14.7848 13.1274 14.5186 13.3936C14.2524 13.6598 13.7391 13.9375 12.75 13.9375V17.9375C14.4984 17.9375 16.1414 17.4277 17.347 16.222C18.5527 15.0164 19.0625 13.3734 19.0625 11.625H15.0625ZM5.25 1.1875C3.88354 1.1875 2.48086 1.51946 1.43766 2.56266C0.394461 3.60586 0.0625 5.00854 0.0625 6.375H4.0625C4.0625 5.59646 4.25179 5.40539 4.26609 5.39109C4.28039 5.37679 4.47146 5.1875 5.25 5.1875V1.1875ZM0.0625 6.375V11.625H4.0625V6.375H0.0625ZM0.0625 11.625C0.0625 12.9915 0.394461 14.3941 1.43766 15.4373C2.48086 16.4805 3.88354 16.8125 5.25 16.8125V12.8125C4.47146 12.8125 4.28039 12.6232 4.26609 12.6089C4.25179 12.5946 4.0625 12.4035 4.0625 11.625H0.0625ZM5.25 16.8125H12.75V12.8125H5.25V16.8125ZM12.75 16.8125C14.1165 16.8125 15.5191 16.4805 16.5623 15.4373C17.6055 14.3941 17.9375 12.9915 17.9375 11.625H13.9375C13.9375 12.4035 13.7482 12.5946 13.7339 12.6089C13.7196 12.6232 13.5285 12.8125 12.75 12.8125V16.8125ZM17.9375 11.625V6.375H13.9375V11.625H17.9375ZM17.9375 6.375C17.9375 5.00854 17.6055 3.60586 16.5623 2.56266C15.5191 1.51946 14.1165 1.1875 12.75 1.1875V5.1875C13.5285 5.1875 13.7196 5.37679 13.7339 5.39109C13.7482 5.40539 13.9375 5.59646 13.9375 6.375H17.9375ZM12.75 1.1875H5.25V5.1875H12.75V1.1875Z" fill="white" mask="url(#path-1-inside-1_794_15696)"/>
<mask id="path-3-inside-2_794_15696" fill="white">
<path d="M8.99983 9.65296C8.36983 9.65296 7.73234 9.45797 7.24484 9.06047L4.89733 7.18547C4.65733 6.99047 4.61234 6.63796 4.80734 6.39796C5.00234 6.15796 5.35484 6.11297 5.59484 6.30797L7.94233 8.18297C8.51233 8.64047 9.47983 8.64047 10.0498 8.18297L12.3973 6.30797C12.6373 6.11297 12.9973 6.15046 13.1848 6.39796C13.3798 6.63796 13.3423 6.99797 13.0948 7.18547L10.7473 9.06047C10.2673 9.45797 9.62983 9.65296 8.99983 9.65296Z"/>
</mask>
<path d="M8.99983 9.65296C8.36983 9.65296 7.73234 9.45797 7.24484 9.06047L4.89733 7.18547C4.65733 6.99047 4.61234 6.63796 4.80734 6.39796C5.00234 6.15796 5.35484 6.11297 5.59484 6.30797L7.94233 8.18297C8.51233 8.64047 9.47983 8.64047 10.0498 8.18297L12.3973 6.30797C12.6373 6.11297 12.9973 6.15046 13.1848 6.39796C13.3798 6.63796 13.3423 6.99797 13.0948 7.18547L10.7473 9.06047C10.2673 9.45797 9.62983 9.65296 8.99983 9.65296Z" fill="white"/>
<path d="M7.24484 9.06047L8.50871 7.51043L8.50089 7.50405L8.49301 7.49775L7.24484 9.06047ZM4.89733 7.18547L3.63615 8.73769L3.64263 8.74296L3.64916 8.74818L4.89733 7.18547ZM5.59484 6.30797L4.33365 7.8602L4.34014 7.86546L4.34666 7.87068L5.59484 6.30797ZM7.94233 8.18297L9.19423 6.62323L9.19051 6.62026L7.94233 8.18297ZM10.0498 8.18297L8.80165 6.62025L8.79794 6.62323L10.0498 8.18297ZM12.3973 6.30797L13.6455 7.87068L13.652 7.86547L13.6585 7.8602L12.3973 6.30797ZM13.1848 6.39796L11.5907 7.60568L11.6112 7.63277L11.6326 7.65915L13.1848 6.39796ZM13.0948 7.18547L11.8871 5.59128L11.8667 5.60676L11.8467 5.62275L13.0948 7.18547ZM10.7473 9.06047L9.49916 7.49775L9.48534 7.5088L9.47171 7.52009L10.7473 9.06047ZM8.99983 7.65296C8.76001 7.65296 8.58833 7.57535 8.50871 7.51043L5.98096 10.6105C6.87634 11.3406 7.97965 11.653 8.99983 11.653V7.65296ZM8.49301 7.49775L6.1455 5.62275L3.64916 8.74818L5.99667 10.6232L8.49301 7.49775ZM6.15852 5.63324C6.7322 6.09936 6.89599 6.99893 6.35956 7.65915L3.25511 5.13678C2.32868 6.277 2.58246 7.88158 3.63615 8.73769L6.15852 5.63324ZM6.35956 7.65915C5.89345 8.23283 4.99387 8.39663 4.33365 7.8602L6.85602 4.75574C5.7158 3.82931 4.11123 4.0831 3.25511 5.13678L6.35956 7.65915ZM4.34666 7.87068L6.69416 9.74568L9.19051 6.62026L6.84301 4.74526L4.34666 7.87068ZM6.69044 9.7427C7.39412 10.3075 8.2454 10.5261 8.99608 10.5261C9.74676 10.5261 10.598 10.3075 11.3017 9.7427L8.79794 6.62323C8.86976 6.56559 8.92786 6.54272 8.95391 6.53443C8.98014 6.52608 8.99322 6.52609 8.99608 6.52609C8.99894 6.52609 9.01202 6.52608 9.03824 6.53443C9.0643 6.54272 9.1224 6.56559 9.19422 6.62323L6.69044 9.7427ZM11.298 9.74568L13.6455 7.87068L11.1492 4.74526L8.80166 6.62026L11.298 9.74568ZM13.6585 7.8602C13.0488 8.35562 12.108 8.28855 11.5907 7.60568L14.779 5.19025C13.8867 4.01238 12.2259 3.87031 11.1361 4.75574L13.6585 7.8602ZM11.6326 7.65915C11.1372 7.04939 11.2043 6.10861 11.8871 5.59128L14.3026 8.77965C15.4804 7.88733 15.6225 6.22654 14.7371 5.13678L11.6326 7.65915ZM11.8467 5.62275L9.49916 7.49775L11.9955 10.6232L14.343 8.74818L11.8467 5.62275ZM9.47171 7.52009C9.40698 7.57369 9.24321 7.65296 8.99983 7.65296V11.653C10.0165 11.653 11.1277 11.3422 12.023 10.6008L9.47171 7.52009Z" fill="white" mask="url(#path-3-inside-2_794_15696)"/>
</svg>
